<?xml version="1.0" encoding="utf-8"?>
<svg version="1.0" width="2500.000000pt" height="951.000000pt" viewBox="0 0 2500.000000 951.000000" preserveAspectRatio="xMidYMid meet" xmlns="http://www.w3.org/2000/svg">
  <g transform="matrix(0.1, 0, 0, -0.1, 5.633824, 973.535232)" fill="#111111" stroke="none">
    <path d="M 12321.945 4383.971 C 12300.945 4353.971 12300.945 4240.971 12321.945 4114.971 C 12341.945 3996.971 12334.945 3934.971 12300.945 3907.971 C 12287.945 3896.971 12270.945 3876.971 12264.945 3861.971 C 12253.945 3838.971 12255.945 3832.971 12273.945 3812.971 C 12298.945 3785.971 12301.945 3747.971 12281.945 3720.971 C 12268.945 3702.971 12266.945 3702.971 12240.945 3719.971 C 12186.945 3755.971 12138.945 3716.971 12148.945 3643.971 C 12157.945 3576.971 12198.945 3548.971 12241.945 3580.971 C 12251.945 3588.971 12265.945 3595.971 12271.945 3595.971 C 12290.945 3595.971 12295.945 3554.971 12279.945 3523.971 C 12267.945 3500.971 12266.945 3486.971 12274.945 3464.971 C 12292.945 3413.971 12278.945 3377.971 12229.945 3349.971 C 12178.945 3319.971 12125.945 3262.971 12125.945 3237.971 C 12125.945 3228.971 12140.945 3195.971 12157.945 3165.971 L 12189.945 3110.971 L 12189.945 2950.971 L 12190.945 2789.971 L 12164.945 2767.971 L 12138.945 2746.971 L 12127.945 2770.971 C 12120.945 2786.971 12095.945 2804.971 12061.945 2819.971 C 12021.945 2837.971 12002.945 2852.971 11990.945 2877.971 C 11951.945 2954.971 11894.945 2985.971 11853.945 2953.971 C 11833.945 2937.971 11795.945 2866.971 11795.945 2844.971 C 11795.945 2828.971 11713.945 2765.971 11693.945 2765.971 C 11688.945 2765.971 11680.945 2753.971 11674.945 2739.971 C 11664.945 2710.971 11675.945 2684.971 11722.945 2634.971 C 11745.945 2609.971 11746.945 2606.971 11739.945 2487.971 C 11731.945 2345.971 11725.945 2334.971 11668.945 2363.971 C 11631.945 2382.971 11630.945 2385.971 11633.945 2428.971 C 11636.945 2463.971 11642.945 2475.971 11660.945 2483.971 C 11707.945 2505.971 11700.945 2556.971 11648.945 2576.971 C 11635.945 2581.971 11625.945 2591.971 11625.945 2598.971 C 11625.945 2606.971 11616.945 2620.971 11606.945 2629.971 C 11580.945 2653.971 11546.945 2641.971 11539.945 2607.971 C 11536.945 2592.971 11519.945 2571.971 11502.945 2559.971 C 11478.945 2544.971 11470.945 2532.971 11472.945 2512.971 C 11474.945 2486.971 11472.945 2485.971 11420.945 2485.971 C 11370.945 2485.971 11365.945 2487.971 11359.945 2510.971 C 11356.945 2524.971 11355.945 2545.971 11358.945 2556.971 C 11365.945 2583.971 11357.945 2603.971 11334.945 2616.971 C 11295.945 2636.971 11255.945 2585.971 11255.945 2515.971 C 11255.945 2485.971 11240.945 2475.971 11199.945 2475.971 C 11147.945 2475.971 11116.945 2440.971 11135.945 2404.971 C 11144.945 2389.971 11157.945 2385.971 11200.945 2385.971 L 11255.945 2385.971 L 11255.945 2279.971 L 11255.945 2173.971 L 11213.945 2134.971 C 11172.945 2097.971 11170.945 2092.971 11170.945 2039.971 L 11170.945 1983.971 L 11079.945 1936.971 C 11029.945 1910.971 10972.945 1876.971 10953.945 1861.971 L 10917.945 1834.971 L 10907.945 1863.971 C 10902.945 1879.971 10888.945 1901.971 10877.945 1911.971 C 10861.945 1926.971 10857.945 1941.971 10858.945 1978.971 C 10860.945 2018.971 10856.945 2030.971 10836.945 2046.971 C 10804.945 2072.971 10773.945 2070.971 10740.945 2039.971 C 10714.945 2015.971 10713.945 2009.971 10718.945 1954.971 C 10721.945 1922.971 10719.945 1893.971 10715.945 1890.971 C 10693.945 1876.971 10665.945 1791.971 10650.945 1694.971 C 10644.945 1657.971 10612.945 1605.971 10594.945 1605.971 C 10589.945 1605.971 10585.945 1619.971 10585.945 1636.971 C 10585.945 1658.971 10594.945 1676.971 10615.945 1695.971 C 10636.945 1715.971 10645.945 1732.971 10645.945 1754.971 C 10645.945 1793.971 10607.945 1835.971 10572.945 1835.971 C 10529.945 1835.971 10512.945 1867.971 10520.945 1930.971 C 10523.945 1961.971 10533.945 2002.971 10541.945 2020.971 C 10560.945 2067.971 10547.945 2097.971 10493.945 2127.971 C 10462.945 2144.971 10451.945 2156.971 10453.945 2171.971 C 10463.945 2234.971 10445.945 2348.971 10420.945 2374.971 C 10410.945 2386.971 10389.945 2395.971 10374.945 2395.971 C 10336.945 2395.971 10314.945 2360.971 10314.945 2298.971 C 10313.945 2248.971 10309.945 2159.971 10307.945 2138.971 C 10304.945 2120.971 10270.945 2122.971 10255.945 2140.971 C 10248.945 2148.971 10227.945 2155.971 10209.945 2155.971 C 10168.945 2155.971 10164.945 2175.971 10194.945 2230.971 C 10204.945 2250.971 10211.945 2275.971 10208.945 2286.971 C 10202.945 2306.971 10160.945 2345.971 10143.945 2345.971 C 10138.945 2345.971 10123.945 2358.971 10109.945 2375.971 C 10095.945 2391.971 10069.945 2409.971 10051.945 2416.971 C 10025.945 2425.971 10015.945 2437.971 10006.945 2466.971 C 9991.945 2517.971 9941.945 2558.971 9904.945 2550.971 C 9853.945 2539.971 9846.945 2564.971 9836.945 2818.971 C 9828.945 3024.971 9825.945 3047.971 9805.945 3079.971 C 9793.945 3099.971 9773.945 3123.971 9761.945 3133.971 C 9748.945 3143.971 9735.945 3167.971 9731.945 3190.971 C 9727.945 3212.971 9716.945 3244.971 9706.945 3260.971 C 9680.945 3304.971 9689.945 3315.971 9750.945 3315.971 C 9808.945 3315.971 9831.945 3329.971 9841.945 3371.971 C 9848.945 3400.971 9825.945 3441.971 9794.945 3450.971 C 9780.945 3455.971 9766.945 3450.971 9751.945 3436.971 C 9739.945 3424.971 9717.945 3415.971 9702.945 3415.971 C 9677.945 3415.971 9675.945 3418.971 9675.945 3456.971 C 9675.945 3479.971 9682.945 3503.971 9691.945 3512.971 C 9719.945 3540.971 9693.945 3615.971 9646.945 3639.971 C 9621.945 3652.971 9614.945 3652.971 9585.945 3637.971 C 9537.945 3613.971 9528.945 3577.971 9550.945 3505.971 C 9560.945 3473.971 9564.945 3442.971 9561.945 3436.971 C 9552.945 3422.971 9520.945 3422.971 9496.945 3434.971 C 9468.945 3449.971 9437.945 3436.971 9414.945 3399.971 C 9394.945 3366.971 9394.945 3363.971 9410.945 3339.971 C 9433.945 3304.971 9471.945 3288.971 9496.945 3303.971 C 9517.945 3316.971 9555.945 3319.971 9555.945 3308.971 C 9555.945 3303.971 9548.945 3291.971 9540.945 3281.971 C 9532.945 3270.971 9525.945 3241.971 9525.945 3217.971 C 9525.945 3178.971 9520.945 3167.971 9486.945 3136.971 C 9465.945 3116.971 9438.945 3082.971 9426.945 3060.971 C 9404.945 3021.971 9404.945 3014.971 9411.945 2788.971 L 9418.945 2555.971 L 9382.945 2515.971 C 9348.945 2478.971 9341.945 2462.971 9333.945 2410.971 C 9331.945 2395.971 9318.945 2388.971 9286.945 2381.971 C 9223.945 2368.971 9205.945 2392.971 9205.945 2487.971 C 9205.945 2574.971 9187.945 2610.971 9132.945 2636.971 C 9073.945 2662.971 8973.945 2662.971 8930.945 2635.971 C 8881.945 2605.971 8871.945 2571.971 8879.945 2457.971 C 8883.945 2404.971 8888.945 2349.971 8891.945 2335.971 C 8895.945 2314.971 8893.945 2316.971 8881.945 2342.971 C 8871.945 2363.971 8857.945 2375.971 8836.945 2380.971 C 8806.945 2386.971 8765.945 2372.971 8765.945 2355.971 C 8765.945 2350.971 8752.945 2330.971 8735.945 2312.971 C 8699.945 2270.971 8695.945 2220.971 8725.945 2182.971 L 8746.945 2156.971 L 8719.945 2133.971 C 8656.945 2080.971 8652.945 2074.971 8658.945 2034.971 C 8661.945 2013.971 8672.945 1984.971 8684.945 1969.971 C 8710.945 1935.971 8711.945 1900.971 8685.945 1868.971 C 8674.945 1854.971 8665.945 1832.971 8665.945 1819.971 C 8665.945 1800.971 8660.945 1795.971 8640.945 1795.971 C 8610.945 1795.971 8575.945 1763.971 8575.945 1736.971 C 8575.945 1706.971 8615.945 1667.971 8660.945 1652.971 L 8700.945 1638.971 L 8713.945 1559.971 C 8730.945 1457.971 8742.945 960.971 8727.945 969.971 C 8721.945 972.971 8709.945 998.971 8700.945 1025.971 C 8680.945 1085.971 8642.945 1119.971 8605.945 1110.971 C 8570.945 1101.971 8555.945 1086.971 8555.945 1061.971 C 8554.945 1043.971 8552.945 1044.971 8538.945 1070.971 C 8505.945 1131.971 8468.945 1140.971 8426.945 1097.971 C 8407.945 1078.971 8396.945 1054.971 8391.945 1021.971 C 8383.945 967.971 8374.945 970.971 8356.945 1032.971 C 8334.945 1110.971 8257.945 1141.971 8216.945 1089.971 C 8204.945 1074.971 8195.945 1050.971 8195.945 1035.971 C 8195.945 993.971 8183.945 992.971 8161.945 1032.971 C 8121.945 1102.971 8042.945 1097.971 8011.945 1023.971 L 7998.945 993.971 L 7991.945 1020.971 C 7981.945 1060.971 7941.945 1095.971 7905.945 1095.971 C 7875.945 1095.971 7833.945 1065.971 7824.945 1036.971 C 7821.945 1027.971 7810.945 1025.971 7789.945 1029.971 C 7764.945 1035.971 7756.945 1043.971 7746.945 1075.971 C 7731.945 1124.971 7691.945 1157.971 7651.945 1153.971 C 7626.945 1151.971 7613.945 1140.971 7586.945 1097.971 L 7552.945 1045.971 L 7461.945 1045.971 C 7349.945 1046.971 7310.945 1054.971 7191.945 1105.971 C 7084.945 1151.971 7067.945 1152.971 6960.945 1125.971 C 6850.945 1097.971 6823.945 1099.971 6785.945 1136.971 C 6755.945 1166.971 6751.945 1167.971 6692.945 1163.971 C 6623.945 1157.971 6565.945 1132.971 6510.945 1084.971 C 6469.945 1048.971 6469.945 1048.971 6495.945 1100.971 C 6506.945 1122.971 6515.945 1145.971 6515.945 1152.971 C 6515.945 1183.971 6481.945 1216.971 6439.945 1226.971 C 6392.945 1238.971 6355.945 1273.971 6327.945 1332.971 C 6314.945 1360.971 6313.945 1375.971 6325.945 1448.971 C 6332.945 1494.971 6336.945 1558.971 6333.945 1590.971 C 6329.945 1640.971 6323.945 1653.971 6297.945 1676.971 C 6239.945 1728.971 6157.945 1727.971 6130.945 1675.971 C 6110.945 1636.971 6111.945 1606.971 6135.945 1554.971 C 6192.945 1428.971 6137.945 1284.971 5980.945 1148.971 C 5941.945 1114.971 5947.945 1079.971 6000.945 1031.971 C 6025.945 1008.971 6045.945 981.971 6045.945 972.971 C 6045.945 949.971 6038.945 950.971 6003.945 980.971 C 5962.945 1014.971 5932.945 1020.971 5860.945 1006.971 C 5767.945 989.971 5751.945 992.971 5706.945 1029.971 C 5649.945 1077.971 5587.945 1089.971 5453.945 1078.971 C 5393.945 1073.971 5345.945 1071.971 5345.945 1073.971 C 5345.945 1075.971 5361.945 1106.971 5380.945 1142.971 C 5436.945 1247.971 5425.945 1287.971 5324.945 1364.971 C 5230.945 1434.971 5222.945 1456.971 5230.945 1608.971 C 5236.945 1706.971 5234.945 1737.971 5222.945 1766.971 C 5194.945 1833.971 5084.945 1859.971 5031.945 1810.971 C 5001.945 1782.971 4999.945 1768.971 5021.945 1695.971 C 5050.945 1596.971 5021.945 1514.971 4931.945 1440.971 C 4896.945 1411.971 4881.945 1390.971 4868.945 1349.971 C 4850.945 1292.971 4848.945 1290.971 4826.945 1304.971 C 4815.945 1311.971 4814.945 1325.971 4820.945 1366.971 C 4824.945 1396.971 4828.945 1447.971 4828.945 1480.971 C 4828.945 1623.971 4718.945 1703.971 4639.945 1618.971 C 4610.945 1587.971 4608.945 1547.971 4631.945 1470.971 C 4653.945 1393.971 4632.945 1316.971 4575.945 1264.971 C 4529.945 1222.971 4526.945 1206.971 4556.945 1159.971 C 4582.945 1116.971 4575.945 1078.971 4534.945 1039.971 C 4505.945 1011.971 4500.945 1010.971 4367.945 1003.971 C 4292.945 1000.971 4202.945 993.971 4167.945 989.971 C 4091.945 981.971 3865.945 1019.971 3865.945 1041.971 C 3865.945 1048.971 3873.945 1056.971 3883.945 1060.971 C 3894.945 1063.971 3907.945 1077.971 3913.945 1091.971 C 3933.945 1134.971 3927.945 1165.971 3891.945 1201.971 C 3862.945 1230.971 3850.945 1235.971 3812.945 1235.971 C 3788.945 1235.971 3763.945 1241.971 3757.945 1248.971 C 3751.945 1254.971 3734.945 1307.971 3720.945 1364.971 C 3699.945 1443.971 3695.945 1478.971 3700.945 1509.971 C 3717.945 1595.971 3712.945 1639.971 3682.945 1678.971 C 3627.945 1750.971 3561.945 1764.971 3514.945 1714.971 C 3481.945 1679.971 3479.945 1654.971 3496.945 1547.971 C 3506.945 1486.971 3504.945 1470.971 3476.945 1358.971 C 3460.945 1291.971 3441.945 1227.971 3435.945 1215.971 C 3429.945 1203.971 3404.945 1185.971 3379.945 1175.971 C 3329.945 1153.971 3310.945 1120.971 3325.945 1080.971 C 3335.945 1053.971 3342.945 1054.971 3200.945 1050.971 C 3144.945 1048.971 3067.945 1015.971 3035.945 979.971 C 3019.945 960.971 3005.945 939.971 3005.945 933.971 C 3005.945 927.971 3015.945 891.971 3027.945 854.971 L 3048.945 787.971 L 3022.945 755.971 C 2986.945 713.971 2980.945 684.971 2994.945 622.971 C 3000.945 593.971 3011.945 542.971 3017.945 509.971 L 3029.945 447.971 L 2992.945 404.971 C 2972.945 381.971 2955.945 358.971 2955.945 354.971 C 2955.945 337.971 2874.945 327.971 2695.945 319.971 C 2438.945 309.971 2401.945 310.971 2300.945 336.971 C 2171.945 368.971 2050.945 367.971 1850.945 330.971 C 1713.945 305.971 1665.945 301.971 1515.945 301.971 C 1419.945 301.971 1277.945 305.971 1200.945 309.971 C 1090.945 315.971 1041.945 314.971 972.945 302.971 C 894.945 288.971 868.945 287.971 722.945 301.971 C 429.945 328.971 349.945 329.971 275.945 306.971 C 197.945 281.971 143.945 280.971 85.945 300.971 C 62.945 308.971 27.945 315.971 9.945 315.971 L -90.565 310.72 L -85.94 233.81 L -87.065 193.226 L 12617.061 200.974 L 24985.661 155.387 C 25000.488 451.928 24964.969 327.022 24964.969 327.022 L 24875.945 337.971 C 24791.945 334.971 24760.945 338.971 24686.945 359.971 C 24532.945 404.971 24470.945 410.971 24323.945 398.971 C 24236.945 391.971 24136.945 391.971 24035.945 396.971 C 23836.945 408.971 23374.945 386.971 23155.945 355.971 C 23032.945 337.971 22948.945 343.971 22835.945 376.971 C 22653.945 430.971 22544.945 427.971 22318.945 361.971 C 22275.945 349.971 22168.945 346.971 21703.945 344.971 C 21088.945 342.971 21077.945 342.971 20949.945 401.971 C 20872.945 436.971 20764.945 443.971 20640.945 421.971 C 20502.945 397.971 20492.945 398.971 20478.945 443.971 C 20472.945 463.971 20459.945 521.971 20449.945 570.971 C 20432.945 657.971 20414.945 695.971 20390.945 695.971 C 20367.945 695.971 20343.945 668.971 20335.945 635.971 C 20330.945 611.971 20327.945 638.971 20326.945 725.971 C 20326.945 860.971 20336.945 937.971 20355.945 943.971 C 20372.945 949.971 20405.945 983.971 20405.945 995.971 C 20405.945 1001.971 20396.945 1014.971 20384.945 1026.971 C 20368.945 1042.971 20356.945 1046.971 20329.945 1040.971 C 20296.945 1034.971 20295.945 1035.971 20295.945 1067.971 C 20295.945 1085.971 20300.945 1163.971 20306.945 1239.971 C 20317.945 1393.971 20314.945 1419.971 20285.945 1435.971 C 20237.945 1461.971 20205.945 1419.971 20205.945 1333.971 C 20205.945 1293.971 20199.945 1272.971 20178.945 1243.971 C 20156.945 1210.971 20149.945 1206.971 20138.945 1217.971 C 20127.945 1229.971 20128.945 1238.971 20141.945 1272.971 C 20162.945 1326.971 20146.945 1361.971 20088.945 1390.971 C 20042.945 1411.971 20036.945 1425.971 20060.945 1445.971 C 20079.945 1461.971 20079.945 1505.971 20060.945 1532.971 C 20051.945 1544.971 20018.945 1573.971 19985.945 1595.971 C 19913.945 1646.971 19885.945 1700.971 19910.945 1739.971 C 19927.945 1765.971 19921.945 1791.971 19896.945 1804.971 C 19870.945 1818.971 19847.945 1910.971 19836.945 2045.971 C 19827.945 2150.971 19828.945 2172.971 19840.945 2185.971 C 19868.945 2216.971 19856.945 2259.971 19814.945 2280.971 C 19782.945 2297.971 19742.945 2287.971 19732.945 2261.971 C 19726.945 2247.971 19734.945 2137.971 19751.945 1978.971 C 19757.945 1924.971 19755.945 1913.971 19736.945 1889.971 C 19725.945 1875.971 19715.945 1854.971 19715.945 1844.971 C 19715.945 1834.971 19706.945 1821.971 19695.945 1815.971 C 19667.945 1800.971 19670.945 1761.971 19700.945 1737.971 C 19740.945 1706.971 19731.945 1684.971 19654.945 1620.971 C 19543.945 1527.971 19535.945 1506.971 19584.945 1438.971 L 19613.945 1398.971 L 19581.945 1380.971 C 19533.945 1352.971 19495.945 1308.971 19495.945 1281.971 C 19495.945 1267.971 19499.945 1254.971 19504.945 1251.971 C 19509.945 1248.971 19515.945 1234.971 19518.945 1219.971 C 19521.945 1199.971 19517.945 1191.971 19499.945 1183.971 C 19486.945 1177.971 19472.945 1175.971 19468.945 1178.971 C 19465.945 1182.971 19460.945 1233.971 19457.945 1291.971 C 19453.945 1390.971 19451.945 1397.971 19429.945 1407.971 C 19392.945 1424.971 19369.945 1396.971 19361.945 1327.971 C 19358.945 1296.971 19353.945 1243.971 19349.945 1210.971 C 19345.945 1173.971 19336.945 1142.971 19324.945 1130.971 C 19314.945 1119.971 19303.945 1091.971 19299.945 1067.971 C 19295.945 1044.971 19288.945 1022.971 19284.945 1019.971 C 19267.945 1009.971 19275.945 955.971 19298.945 933.971 C 19320.945 910.971 19332.945 835.971 19334.945 698.971 C 19335.945 645.971 19335.945 645.971 19315.945 665.971 C 19290.945 690.971 19280.945 690.971 19255.945 665.971 C 19241.945 651.971 19235.945 632.971 19235.945 600.971 C 19235.945 575.971 19230.945 555.971 19225.945 555.971 C 19219.945 555.971 19210.945 544.971 19203.945 530.971 C 19194.945 511.971 19195.945 501.971 19209.945 481.971 C 19218.945 467.971 19225.945 451.971 19225.945 445.971 C 19225.945 432.971 19062.945 432.971 19015.945 445.971 C 18996.945 450.971 18927.945 459.971 18860.945 465.971 C 18794.945 470.971 18715.945 482.971 18685.945 491.971 C 18650.945 501.971 18567.945 509.971 18452.945 514.971 L 18275.945 520.971 L 18205.945 594.971 C 18166.945 634.971 18135.945 669.971 18135.945 671.971 C 18135.945 672.971 18161.945 679.971 18193.945 685.971 C 18310.945 708.971 18381.945 767.971 18345.945 811.971 C 18328.945 830.971 18309.945 829.971 18261.945 805.971 C 18238.945 795.971 18200.945 783.971 18176.945 779.971 L 18132.945 772.971 L 18138.945 880.971 C 18142.945 939.971 18145.945 1049.971 18145.945 1123.971 L 18145.945 1258.971 L 18217.945 1252.971 C 18298.945 1245.971 18325.945 1255.971 18325.945 1290.971 C 18325.945 1328.971 18290.945 1345.971 18213.945 1345.971 L 18145.945 1345.971 L 18145.945 1379.971 C 18145.945 1414.971 18124.945 1445.971 18101.945 1445.971 C 18080.945 1445.971 18055.945 1411.971 18055.945 1383.971 C 18055.945 1359.971 18053.945 1358.971 17968.945 1352.971 C 17919.945 1349.971 17872.945 1343.971 17862.945 1340.971 C 17834.945 1329.971 17822.945 1299.971 17836.945 1274.971 C 17847.945 1254.971 17852.945 1253.971 17935.945 1259.971 C 17983.945 1263.971 18029.945 1263.971 18039.945 1259.971 C 18052.945 1254.971 18055.945 1236.971 18055.945 1141.971 C 18055.945 1080.971 18052.945 972.971 18048.945 901.971 L 18042.945 773.971 L 17992.945 779.971 C 17964.945 783.971 17933.945 791.971 17923.945 796.971 C 17900.945 808.971 17869.945 793.971 17860.945 764.971 C 17849.945 729.971 17885.945 703.971 17962.945 690.971 C 18000.945 684.971 18030.945 674.971 18030.945 669.971 C 18030.945 663.971 18018.945 644.971 18003.945 627.971 L 17976.945 595.971 L 17883.945 605.971 C 17832.945 611.971 17741.945 623.971 17680.945 631.971 C 17500.945 654.971 17389.945 664.971 17230.945 670.971 C 17090.945 675.971 16938.945 699.971 16924.945 718.971 C 16921.945 722.971 16896.945 727.971 16868.945 728.971 C 16840.945 729.971 16819.945 734.971 16823.945 739.971 C 16826.945 744.971 16818.945 745.971 16804.945 742.971 C 16791.945 739.971 16749.945 741.971 16710.945 746.971 C 16672.945 752.971 16626.945 759.971 16608.945 761.971 C 16586.945 764.971 16574.945 773.971 16569.945 788.971 C 16566.945 800.971 16557.945 817.971 16549.945 825.971 C 16540.945 835.971 16534.945 881.971 16530.945 955.971 C 16526.945 1018.971 16522.945 1080.971 16519.945 1092.971 C 16513.945 1122.971 16479.945 1131.971 16454.945 1109.971 C 16437.945 1094.971 16435.945 1078.971 16435.945 974.971 L 16435.945 856.971 L 16408.945 883.971 C 16383.945 907.971 16335.945 971.971 16335.945 979.971 C 16335.945 981.971 16349.945 988.971 16366.945 995.971 C 16406.945 1012.971 16421.945 1049.971 16400.945 1081.971 C 16385.945 1105.971 16377.945 1108.971 16300.945 1123.971 C 16256.945 1132.971 16241.945 1159.971 16275.945 1168.971 C 16290.945 1172.971 16295.945 1181.971 16295.945 1204.971 C 16295.945 1231.971 16289.945 1238.971 16248.945 1257.971 C 16213.945 1274.971 16190.945 1295.971 16163.945 1335.971 C 16117.945 1404.971 16105.945 1442.971 16105.945 1528.971 L 16105.945 1595.971 L 16135.945 1595.971 C 16154.945 1595.971 16175.945 1604.971 16190.945 1620.971 C 16217.945 1646.971 16221.945 1666.971 16204.945 1697.971 C 16195.945 1713.971 16197.945 1721.971 16216.945 1738.971 L 16238.945 1758.971 L 16199.945 1770.971 C 16143.945 1787.971 16115.945 1804.971 16115.945 1821.971 C 16115.945 1829.971 16111.945 1833.971 16105.945 1830.971 C 16099.945 1826.971 16095.945 1840.971 16095.945 1864.971 C 16095.945 1886.971 16100.945 1907.971 16105.945 1910.971 C 16123.945 1921.971 16115.945 1966.971 16090.945 1990.971 C 16043.945 2038.971 15955.945 2012.971 15955.945 1950.971 C 15955.945 1935.971 15967.945 1912.971 15981.945 1898.971 L 16007.945 1872.971 L 16003.945 1636.971 C 15999.945 1363.971 15996.945 1352.971 15915.945 1284.971 C 15854.945 1232.971 15835.945 1200.971 15835.945 1148.971 C 15835.945 1101.971 15828.945 1090.971 15792.945 1081.971 C 15776.945 1077.971 15759.945 1064.971 15753.945 1049.971 C 15743.945 1027.971 15745.945 1016.971 15764.945 980.971 C 15786.945 938.971 15786.945 936.971 15769.945 910.971 C 15753.945 885.971 15751.945 885.971 15744.945 901.971 C 15741.945 912.971 15732.945 953.971 15725.945 994.971 C 15716.945 1047.971 15706.945 1075.971 15689.945 1092.971 C 15661.945 1120.971 15651.945 1121.971 15625.945 1095.971 C 15608.945 1078.971 15605.945 1062.971 15605.945 975.971 L 15605.945 875.971 L 15555.945 875.971 C 15528.945 875.971 15491.945 882.971 15473.945 889.971 C 15455.945 897.971 15420.945 907.971 15395.945 910.971 C 15356.945 915.971 15348.945 920.971 15338.945 945.971 C 15322.945 988.971 15286.945 993.971 15229.945 961.971 C 15190.945 939.971 15177.945 937.971 15142.945 944.971 C 15119.945 949.971 15062.945 956.971 15015.945 960.971 C 14968.945 964.971 14883.945 977.971 14825.945 990.971 C 14767.945 1003.971 14646.945 1023.971 14555.945 1034.971 C 14464.945 1046.971 14342.945 1063.971 14282.945 1072.971 L 14175.945 1088.971 L 14177.945 1171.971 C 14179.945 1235.971 14176.945 1258.971 14163.945 1272.971 C 14153.945 1284.971 14146.945 1315.971 14143.945 1361.971 C 14140.945 1418.971 14134.945 1440.971 14113.945 1471.971 C 14098.945 1493.971 14083.945 1523.971 14079.945 1538.971 C 14071.945 1573.971 14036.945 1592.971 14007.945 1576.971 C 13986.945 1565.971 13968.945 1510.971 13958.945 1430.971 C 13956.945 1408.971 13947.945 1376.971 13939.945 1359.971 C 13928.945 1334.971 13927.945 1316.971 13935.945 1275.971 C 13944.945 1226.971 13944.945 1223.971 13917.945 1200.971 C 13893.945 1179.971 13890.945 1170.971 13890.945 1116.971 C 13890.945 1049.971 13897.945 1055.971 13798.945 1040.971 C 13759.945 1034.971 13757.945 1035.971 13750.945 1063.971 C 13732.945 1145.971 13642.945 1173.971 13576.945 1117.971 C 13555.945 1100.971 13543.945 1080.971 13542.945 1062.971 C 13540.945 1037.971 13537.945 1035.971 13498.945 1035.971 C 13456.945 1035.971 13415.945 1010.971 13415.945 985.971 C 13415.945 980.971 13402.945 975.971 13385.945 975.971 L 13355.945 975.971 L 13360.945 1078.971 C 13363.945 1134.971 13367.945 1227.971 13370.945 1285.971 C 13372.945 1343.971 13369.945 1467.971 13363.945 1560.971 C 13345.945 1827.971 13349.945 1866.971 13396.945 1885.971 C 13436.945 1902.971 13458.945 1936.971 13449.945 1969.971 C 13443.945 1995.971 13353.945 2065.971 13326.945 2065.971 C 13319.945 2065.971 13315.945 2090.971 13315.945 2140.971 C 13315.945 2203.971 13319.945 2220.971 13340.945 2251.971 C 13354.945 2271.971 13365.945 2295.971 13365.945 2303.971 C 13365.945 2330.971 13325.945 2383.971 13296.945 2393.971 C 13272.945 2401.971 13269.945 2407.971 13273.945 2433.971 C 13278.945 2470.971 13246.945 2534.971 13205.945 2569.971 C 13151.945 2614.971 13126.945 2599.971 13090.945 2504.971 C 13067.945 2444.971 13064.945 2427.971 13073.945 2399.971 C 13084.945 2361.971 13069.945 2351.971 13048.945 2384.971 C 13029.945 2414.971 12986.945 2420.971 12960.945 2395.971 C 12942.945 2378.971 12927.945 2374.971 12889.945 2377.971 L 12841.945 2380.971 L 12828.945 2449.971 C 12811.945 2541.971 12771.945 2617.971 12712.945 2671.971 C 12685.945 2695.971 12659.945 2715.971 12655.945 2715.971 C 12651.945 2715.971 12645.945 2732.971 12641.945 2753.971 C 12638.945 2774.971 12625.945 2801.971 12612.945 2813.971 C 12589.945 2834.971 12588.945 2845.971 12582.945 2991.971 C 12575.945 3147.971 12575.945 3147.971 12600.945 3177.971 C 12642.945 3227.971 12638.945 3237.971 12518.945 3361.971 C 12493.945 3386.971 12475.945 3414.971 12475.945 3427.971 C 12475.945 3440.971 12468.945 3461.971 12460.945 3475.971 C 12430.945 3528.971 12425.945 3546.971 12435.945 3566.971 C 12447.945 3587.971 12487.945 3591.971 12530.945 3575.971 C 12571.945 3559.971 12591.945 3576.971 12599.945 3635.971 C 12612.945 3729.971 12555.945 3779.971 12501.945 3720.971 C 12469.945 3685.971 12448.945 3688.971 12442.945 3728.971 C 12439.945 3750.971 12445.945 3772.971 12462.945 3802.971 C 12488.945 3847.971 12484.945 3870.971 12446.945 3897.971 C 12431.945 3908.971 12427.945 3929.971 12421.945 4035.971 C 12404.945 4348.971 12401.945 4376.971 12381.945 4391.971 C 12354.945 4411.971 12339.945 4409.971 12321.945 4383.971 Z M 12128.945 2690.971 C 12131.945 2669.971 12127.945 2661.971 12104.945 2650.971 C 12069.945 2631.971 12065.945 2631.971 12065.945 2650.971 C 12065.945 2662.971 12109.945 2712.971 12121.945 2715.971 C 12122.945 2715.971 12125.945 2704.971 12128.945 2690.971 Z M 11545.945 2444.971 C 11545.945 2423.971 11536.945 2405.971 11517.945 2387.971 C 11466.945 2339.971 11463.945 2324.971 11480.945 2234.971 C 11496.945 2150.971 11499.945 2068.971 11489.945 2041.971 C 11486.945 2032.971 11475.945 2025.971 11466.945 2025.971 C 11453.945 2025.971 11449.945 2034.971 11449.945 2061.971 C 11449.945 2096.971 11427.945 2126.971 11393.945 2137.971 C 11383.945 2141.971 11359.945 2373.971 11368.945 2382.971 C 11371.945 2384.971 11402.945 2388.971 11439.945 2392.971 C 11495.945 2397.971 11508.945 2402.971 11515.945 2419.971 C 11519.945 2431.971 11519.945 2448.971 11513.945 2458.971 C 11506.945 2471.971 11508.945 2475.971 11525.945 2475.971 C 11541.945 2475.971 11545.945 2469.971 11545.945 2444.971 Z"/>
  </g>
</svg>